<svg width="512" height="512" viewBox="0 0 512 512" fill="none" xmlns="http://www.w3.org/2000/svg">
  <defs>
    <linearGradient id="bg" x1="96" y1="72" x2="416" y2="440" gradientUnits="userSpaceOnUse">
      <stop stop-color="#F6FEFF"/>
      <stop offset="1" stop-color="#E7F8F7"/>
    </linearGradient>
    <linearGradient id="pill" x1="164" y1="150" x2="360" y2="332" gradientUnits="userSpaceOnUse">
      <stop stop-color="#57C9E8"/>
      <stop offset="1" stop-color="#2C9C98"/>
    </linearGradient>
    <linearGradient id="accent" x1="128" y1="320" x2="384" y2="420" gradientUnits="userSpaceOnUse">
      <stop stop-color="#D8F7F5"/>
      <stop offset="1" stop-color="#C7EEEB"/>
    </linearGradient>
  </defs>
  <rect x="28" y="28" width="456" height="456" rx="92" fill="url(#bg)"/>
  <rect x="74" y="74" width="364" height="364" rx="72" fill="white" fill-opacity="0.82"/>
  <rect x="132" y="138" width="248" height="144" rx="40" fill="url(#accent)"/>
  <rect x="156" y="158" width="200" height="104" rx="28" fill="white" fill-opacity="0.92"/>
  <rect x="182" y="190" width="148" height="18" rx="9" fill="#2C9C98"/>
  <rect x="182" y="224" width="112" height="14" rx="7" fill="#57C9E8"/>
  <rect x="214" y="168" width="84" height="84" rx="28" fill="url(#pill)"/>
  <path d="M256 182V238" stroke="white" stroke-width="18" stroke-linecap="round"/>
  <path d="M228 210H284" stroke="white" stroke-width="18" stroke-linecap="round"/>
  <rect x="138" y="304" width="236" height="40" rx="20" fill="#E7F8F7"/>
  <rect x="160" y="316" width="152" height="16" rx="8" fill="#2C9C98"/>
  <rect x="160" y="344" width="88" height="12" rx="6" fill="#57C9E8"/>
  <path d="M170 360C170 345 182 334 197 334H201C216 334 228 345 228 360V400C228 413 218 424 205 424H193C180 424 170 413 170 400V360Z" fill="#57C9E8"/>
  <path d="M342 360C342 345 330 334 315 334H311C296 334 284 345 284 360V400C284 413 294 424 307 424H319C332 424 342 413 342 400V360Z" fill="#2C9C98"/>
  <text x="256" y="452" text-anchor="middle" font-family="Arial, sans-serif" font-size="42" font-weight="700" fill="#4B5563">Medicine Label</text>
</svg>
